<?xml version="1.0" encoding="utf-8"?>
<!-- Generator: Adobe Illustrator 27.3.1, SVG Export Plug-In . SVG Version: 6.00 Build 0)  -->
<svg version="1.1" id="Layer_1" xmlns="http://www.w3.org/2000/svg" xmlns:xlink="http://www.w3.org/1999/xlink" x="0px" y="0px"
	 viewBox="0 0 60 45" style="enable-background:new 0 0 60 45;" xml:space="preserve">
<style type="text/css">
	.st0{fill:url(#SVGID_1_);}
	.st1{fill:url(#SVGID_00000039846548903230726760000017515665825708865455_);}
	.st2{fill:url(#SVGID_00000140014202268727248230000000487210371242046090_);}
	.st3{fill:url(#SVGID_00000078029172984443894520000014640879299215813820_);}
	.st4{fill:url(#SVGID_00000177471656112125202210000010409012970057783439_);}
	.st5{fill:url(#SVGID_00000031207615444022916830000008193606671616016291_);}
	.st6{fill:url(#SVGID_00000106848220479780632590000010255319126549751461_);}
	.st7{fill:url(#SVGID_00000160190752461098681710000000386147305499739806_);}
</style>
<linearGradient id="SVGID_1_" gradientUnits="userSpaceOnUse" x1="4.159" y1="6.1649" x2="29.1014" y2="6.1649">
	<stop  offset="0" style="stop-color:#67BD45"/>
	<stop  offset="0.0701" style="stop-color:#57B947"/>
	<stop  offset="0.1721" style="stop-color:#45B649"/>
	<stop  offset="0.2809" style="stop-color:#3DB54A"/>
	<stop  offset="0.6685" style="stop-color:#069B49"/>
	<stop  offset="0.8876" style="stop-color:#16783C"/>
	<stop  offset="1" style="stop-color:#105129"/>
</linearGradient>
<path class="st0" d="M29.1,3.07c0,0.5-0.05,1-0.15,1.47c-0.46,2.42-2.06,4.43-4.22,5.47c-0.94,0.46-1.97,0.73-3.07,0.78
	c-0.12,0.01-0.24,0.01-0.36,0.01h-0.12C15.76,4.12,8.4,2.17,4.97,4.46C4.72,4.63,4.44,4.86,4.16,5.12c1.68-1.67,3.86-2.86,6.28-3.35
	c0.8-0.16,1.62-0.25,2.47-0.25h16.03c0.01,0.02,0.02,0.05,0.02,0.08C29.05,2.08,29.1,2.57,29.1,3.07z"/>
<linearGradient id="SVGID_00000106106880944015820420000001570393301362807937_" gradientUnits="userSpaceOnUse" x1="5.7146" y1="38.899" x2="29.1342" y2="38.899">
	<stop  offset="0.0899" style="stop-color:#62B846"/>
	<stop  offset="0.1209" style="stop-color:#67BD45"/>
	<stop  offset="0.2508" style="stop-color:#5FB646"/>
	<stop  offset="0.2898" style="stop-color:#50AE47"/>
	<stop  offset="0.3693" style="stop-color:#32A348"/>
	<stop  offset="0.4512" style="stop-color:#179D49"/>
	<stop  offset="0.5385" style="stop-color:#069B49"/>
	<stop  offset="0.6519" style="stop-color:#128943"/>
	<stop  offset="0.7492" style="stop-color:#16783C"/>
	<stop  offset="0.9093" style="stop-color:#105129"/>
	<stop  offset="1" style="stop-color:#105129"/>
</linearGradient>
<path style="fill:url(#SVGID_00000106106880944015820420000001570393301362807937_);" d="M29.13,41.39c0,0.75-0.11,1.47-0.31,2.15
	H12.94c-0.39,0-0.78-0.02-1.17-0.05c-2.24-0.21-4.32-1.01-6.06-2.26c3.93,2.57,12.31,0.51,18.39-6.96c0.28,0.1,0.54,0.21,0.8,0.35
	C27.41,35.84,29.13,38.41,29.13,41.39z"/>
<linearGradient id="SVGID_00000020361466072575101200000010986351144134293391_" gradientUnits="userSpaceOnUse" x1="0.4664" y1="25.7778" x2="51.9241" y2="25.7778">
	<stop  offset="0.0201" style="stop-color:#105129"/>
	<stop  offset="0.1051" style="stop-color:#105129"/>
	<stop  offset="0.1796" style="stop-color:#16783C"/>
	<stop  offset="0.6268" style="stop-color:#67BD45"/>
	<stop  offset="0.6335" style="stop-color:#5FBB46"/>
	<stop  offset="0.6565" style="stop-color:#48B749"/>
	<stop  offset="0.6745" style="stop-color:#3DB54A"/>
	<stop  offset="0.6763" style="stop-color:#3DB54A"/>
	<stop  offset="0.7311" style="stop-color:#3DB54A"/>
	<stop  offset="0.9293" style="stop-color:#105129"/>
	<stop  offset="1" style="stop-color:#105129"/>
</linearGradient>
<path style="fill:url(#SVGID_00000020361466072575101200000010986351144134293391_);" d="M44.6,26.92h-5.72v13.85
	c-0.36-0.95-0.9-2.07-1.74-3.19c-2.54-3.41-6.11-4.61-7.63-5.03v-5.63H9.93C9.92,27,9.91,27.09,9.91,27.2
	C9.9,27.29,9.9,27.38,9.9,27.47c0,2.61,1.38,4.9,3.44,6.18c-0.31-0.06-0.62-0.13-0.94-0.21c-5.59-1.34-9.62-3.92-11.94-5.7V17.34
	c2.3-1.77,6.31-4.35,11.86-5.7c0.46-0.11,0.9-0.21,1.34-0.29c-1.9,1.17-3.16,3.28-3.16,5.68c0,0.24,0.02,0.48,0.04,0.71h18.96
	c0.44-2.03,0.87-4.07,1.31-6.1c2.69-0.29,5.38-0.57,8.06-0.86c0,2.29,0,4.59,0,6.88c4.29,0.08,8.59,0.15,12.88,0.23
	c0.08,0.34,0.8,3.8-1.65,6.56C47.98,26.86,45.06,26.92,44.6,26.92z"/>
<linearGradient id="SVGID_00000072270731120240829580000015139554695606560386_" gradientUnits="userSpaceOnUse" x1="0.4664" y1="10.2271" x2="23.371" y2="10.2271">
	<stop  offset="0.079" style="stop-color:#105129"/>
	<stop  offset="0.2312" style="stop-color:#16783C"/>
	<stop  offset="0.4294" style="stop-color:#069B49"/>
	<stop  offset="0.6965" style="stop-color:#3DB54A"/>
	<stop  offset="0.8516" style="stop-color:#67BD45"/>
</linearGradient>
<path style="fill:url(#SVGID_00000072270731120240829580000015139554695606560386_);" d="M21.22,10.8c-0.89-0.04-1.89-0.05-2.98,0
	c-1.38,0.06-2.91,0.22-4.56,0.55c-0.44,0.09-0.89,0.19-1.34,0.29c-5.56,1.34-9.56,3.93-11.86,5.7v-3.33c0-0.18,0.01-0.36,0.02-0.54
	c0-0.02,0.01-0.05,0.01-0.12c0-0.02,0.01-0.06,0.01-0.09c0.04-0.36,0.12-1.12,0.25-1.85C0.78,11.2,0.83,11,0.88,10.8
	C1.46,8.63,2.6,6.69,4.16,5.15c0.01-0.01,0.02-0.02,0.03-0.03C4.63,4.6,5.1,4.2,5.58,3.91c5.93-3.58,17.08,5.99,17.79,6.62
	c-0.25,0.07-0.53,0.13-0.83,0.18C22.05,10.78,21.61,10.81,21.22,10.8z"/>
<linearGradient id="SVGID_00000030471046834863881230000000431723575426312600_" gradientUnits="userSpaceOnUse" x1="0.4664" y1="35.0006" x2="24.1141" y2="35.0006">
	<stop  offset="0" style="stop-color:#67BD45"/>
	<stop  offset="0.0344" style="stop-color:#57B947"/>
	<stop  offset="0.0844" style="stop-color:#45B649"/>
	<stop  offset="0.1377" style="stop-color:#3DB54A"/>
	<stop  offset="0.5884" style="stop-color:#069B49"/>
	<stop  offset="0.8331" style="stop-color:#16783C"/>
	<stop  offset="0.9444" style="stop-color:#105129"/>
</linearGradient>
<path style="fill:url(#SVGID_00000030471046834863881230000000431723575426312600_);" d="M24.11,34.26
	c-6.08,7.47-14.45,9.53-18.39,6.96c-0.02-0.02-0.04-0.02-0.06-0.04c-0.02-0.02-0.05-0.03-0.07-0.05c-0.26-0.19-0.49-0.38-0.73-0.58
	c-0.11-0.09-0.22-0.19-0.35-0.31c-0.15-0.15-0.31-0.3-0.47-0.47c-1.04-1.1-2.22-2.71-2.93-4.81C1.06,34.81,1,34.64,0.96,34.48
	c-0.02-0.08-0.05-0.15-0.06-0.22c-0.26-0.95-0.36-1.78-0.4-2.39c-0.01-0.27-0.01-0.54-0.02-0.81c-0.02-1.13-0.02-2.24,0-3.34
	c2.33,1.78,6.35,4.36,11.94,5.7c0.32,0.08,0.63,0.15,0.94,0.21c2.4,0.48,4.27,0.6,4.99,0.63c0.26,0.01,0.15,0,2.97,0H24.11z"/>
<path d="M5.58,41.16c-0.21-0.14-0.46-0.33-0.73-0.58C5.09,40.78,5.33,40.98,5.58,41.16z"/>
<linearGradient id="SVGID_00000116206038673869846070000006448870843375228560_" gradientUnits="userSpaceOnUse" x1="45.3794" y1="24.1671" x2="27.7" y2="41.8465">
	<stop  offset="0" style="stop-color:#105129"/>
	<stop  offset="0.0447" style="stop-color:#135B2E"/>
	<stop  offset="0.1465" style="stop-color:#177039"/>
	<stop  offset="0.2017" style="stop-color:#16783C"/>
	<stop  offset="0.3107" style="stop-color:#238741"/>
	<stop  offset="0.5222" style="stop-color:#3DB54A"/>
	<stop  offset="0.7101" style="stop-color:#44B649"/>
	<stop  offset="0.8778" style="stop-color:#56B947"/>
	<stop  offset="1" style="stop-color:#67BD45"/>
</linearGradient>
<path style="fill:url(#SVGID_00000116206038673869846070000006448870843375228560_);" d="M38.88,40.77v2.89h-9.37
	c0-3.7,0-7.41,0-11.11c1.25-0.36,3.3-1.15,5.2-2.92c1.59-1.49,2.37-3,2.52-3.3c0.72-1.45,0.92-2.66,1.25-4.62
	c0.27-1.63,0.37-3.02,0.4-4.02c0,1.22,0,17.77,0,19.01C38.88,36.74,38.88,40.71,38.88,40.77z"/>
<linearGradient id="SVGID_00000072961964791152420530000009702878487612397735_" gradientUnits="userSpaceOnUse" x1="29.5347" y1="6.1565" x2="59.1702" y2="6.1565">
	<stop  offset="0" style="stop-color:#67BD45"/>
	<stop  offset="0.0701" style="stop-color:#57B947"/>
	<stop  offset="0.1721" style="stop-color:#45B649"/>
	<stop  offset="0.2809" style="stop-color:#3DB54A"/>
	<stop  offset="0.6685" style="stop-color:#069B49"/>
	<stop  offset="0.8876" style="stop-color:#16783C"/>
	<stop  offset="1" style="stop-color:#105129"/>
</linearGradient>
<path style="fill:url(#SVGID_00000072961964791152420530000009702878487612397735_);" d="M59.17,3.07c0,0.5-0.05,1-0.15,1.47
	c-0.46,2.42-2.06,4.43-4.22,5.47c-0.94,0.46-1.97,0.73-3.07,0.78c-0.12,0.01-0.24,0.01-0.36,0.01h-0.12
	c-5-1.48-10.48-3.52-16.22-6.34c-1.93-0.95-3.77-1.93-5.5-2.92c2.96-0.03,5.95-0.04,8.95-0.03c1.5,0,3,0.01,4.49,0.02h16.03
	c0.01,0.02,0.02,0.05,0.02,0.08C59.12,2.08,59.17,2.57,59.17,3.07z"/>
<linearGradient id="SVGID_00000108269492787409000960000001052809031030653315_" gradientUnits="userSpaceOnUse" x1="29.5038" y1="9.6537" x2="51.3054" y2="9.6537">
	<stop  offset="0.079" style="stop-color:#105129"/>
	<stop  offset="0.2312" style="stop-color:#16783C"/>
	<stop  offset="0.4294" style="stop-color:#069B49"/>
	<stop  offset="0.6965" style="stop-color:#3DB54A"/>
	<stop  offset="0.8516" style="stop-color:#67BD45"/>
</linearGradient>
<path style="fill:url(#SVGID_00000108269492787409000960000001052809031030653315_);" d="M45.8,10.84
	c-4.44,0.12-6.66,0.18-8.34,0.68c-1.71,0.5-4.88,1.86-7.91,6.26c0.01-2.51,0-5.02,0-7.54c-0.01-2.91-0.02-5.81-0.04-8.7
	c1.07-0.01,2.15-0.01,3.22-0.02c0.55,0,3.97,0.24,7.56,1.55c5.77,2.1,9.64,6.17,11.01,7.73C49.99,10.79,48.09,10.78,45.8,10.84z"/>
</svg>
